<svg xmlns="http://www.w3.org/2000/svg" version="1.1" xmlns:xlink="http://www.w3.org/1999/xlink" xmlns:svgjs="http://svgjs.dev/svgjs" width="512" height="512"><svg width="512" height="512" viewBox="0 0 512 512" fill="none" xmlns="http://www.w3.org/2000/svg">
<rect width="512" height="512" rx="128" fill="#00FFFF"></rect>
<path fill-rule="evenodd" clip-rule="evenodd" d="M190.826 511.705C172.033 511.42 155.179 510.862 140 509.768V152.256C140 132.598 144.783 115.253 154.349 100.22C163.915 85.0719 176.938 73.277 193.419 64.8356C210.015 56.2785 228.743 52 249.604 52C265.739 52 280.376 54.544 293.514 59.632C306.653 64.6043 317.947 71.4847 327.398 80.273C336.848 88.9457 344.109 98.9482 349.18 110.281C354.251 121.613 356.787 133.581 356.787 146.186C356.787 161.449 352.926 176.482 345.204 191.284C339.579 202.229 331.812 211.783 321.901 219.946C322.944 220.547 323.97 221.169 324.978 221.811C340.882 231.756 352.695 244.65 360.417 260.492C368.139 276.218 372 292.812 372 310.273C372 330.509 367.275 348.664 357.824 364.738C348.374 380.811 335.465 393.473 319.1 402.724C302.734 411.975 284.121 416.6 263.261 416.6C250.814 416.6 238.482 414.461 226.265 410.182C214.164 405.788 203.215 397.636 193.419 385.725L190.826 386.94V511.705ZM230.76 242.626V206.721V203.599H248.739C261.532 203.599 272.193 200.997 280.721 195.793C289.25 190.474 295.646 183.767 299.911 175.673C304.175 167.463 306.307 158.963 306.307 150.175C306.307 135.374 300.89 123.116 290.057 113.403C279.338 103.689 265.854 98.8326 249.604 98.8326C238.77 98.8326 228.916 101.087 220.042 105.597C211.167 110.107 204.079 116.525 198.778 124.851C193.476 133.061 190.826 142.659 190.826 153.644V310.62C190.826 321.374 193.419 331.319 198.605 340.454C203.791 349.589 211.167 356.874 220.733 362.309C230.299 367.744 241.709 370.462 254.963 370.462C268.678 370.462 280.433 367.628 290.229 361.962C300.141 356.18 307.805 348.606 313.222 339.24C318.639 329.758 321.347 319.408 321.347 308.192C321.347 297.09 318.754 286.915 313.568 277.664C308.497 268.413 301.409 260.954 292.304 255.288C283.199 249.622 272.711 246.789 260.841 246.789H230.76V242.626Z" fill="black"></path>
</svg><style>@media (prefers-color-scheme: light) { :root { filter: none; } }
@media (prefers-color-scheme: dark) { :root { filter: none; } }
</style></svg>